<svg width="400" height="301" viewBox="0 0 400 301" fill="none" xmlns="http://www.w3.org/2000/svg">
<path opacity="0.35" d="M284.607 201.695L286 282L161.387 282.052L161.583 199.5L284.607 201.695Z" fill="#7ACBBE"/>
<path d="M274.904 144.219C271.279 143.969 266.779 143.594 263.176 143.781C259.504 143.972 256.43 145.046 250.126 155.435C242.5 168 234.342 194.5 234.342 194.5M272.717 153.312L264.203 155.435C264.203 173.5 260.967 195.5 260.967 195.5M277.092 148.836L265.592 148.836" stroke="#2E2E2E"/>
<path d="M290.607 195.695L292 276L167.387 276.052L167.583 193.5L290.607 195.695Z" stroke="#2E2E2E"/>
<path d="M295.501 102.937C299.688 102.438 301.689 104.062 302.814 106.562" stroke="#2E2E2E"/>
<path d="M271 95.6249C273.688 95.0624 276.32 95.3438 278.243 97.7423" stroke="#2E2E2E"/>
<path d="M329.836 121.365C337.401 114.907 345.403 104.895 337.12 92.5913C342.906 82.3555 337.976 77.6164 329.62 69.1986C320.647 60.1601 317.001 57.5319 299.585 56.5052C285.318 55.6641 281.912 45.4817 273.261 64.6215C273.261 64.6215 260.726 62.2785 262.891 74.9564C264.196 82.5994 266.579 88.5163 263.276 98.865C256.772 119.242 256.175 133.286 262.683 144" stroke="#2E2E2E" stroke-linejoin="round"/>
<path d="M286.637 139.173C281.571 141.436 276.428 140.447 272.221 135.921" stroke="#2E2E2E"/>
<path d="M288.854 95.1278C282.262 117.707 275.743 119.914 273.756 124.134C272.147 127.549 278.394 128.89 283.103 129.299" stroke="#2E2E2E"/>
<path d="M294.25 266.5C294.25 266.5 324.968 268.636 336.25 262.25C347.412 255.932 345.015 239.522 343.184 228.68M312.5 217.209L314.625 232.834C320.255 234.502 335.191 232.343 343.184 228.68M343.184 228.68C344.773 227.951 346.088 227.163 347 226.334C345.409 220.156 341.187 203.898 339 197.834C330.75 174.959 307.792 171.093 298.375 168.834C287 166.104 291.001 155 291.001 155C297.054 152.516 306.394 146.52 313.288 133.825C336.256 128.835 327.829 116.199 324.581 114.046C321.333 111.894 318.563 114.302 317.576 121.09M343.184 228.68C343.164 228.564 343.144 228.448 343.125 228.334M291.25 250.25C309.4 250.25 322.25 247.25 319.625 233.709" stroke="#2E2E2E"/>
<path d="M8 260H41.5M156.5 260H92M349.5 260H392" stroke="#2E2E2E"/>
<path d="M271.875 169.833C275.664 164.652 275.317 159.876 274.5 156.986M298.625 169.333C290.25 182.583 271.875 180.333 268.125 169.333L263.5 171.5" stroke="#2E2E2E"/>
<ellipse cx="1.9375" cy="1.9375" rx="1.9375" ry="1.9375" transform="matrix(-0.947731 -0.31907 -0.31907 0.947731 297.371 111.722)" fill="#2E2E2E"/>
<ellipse cx="1.9375" cy="1.9375" rx="1.9375" ry="1.9375" transform="matrix(-0.947731 -0.31907 -0.31907 0.947731 274.938 105.872)" fill="#2E2E2E"/>
<path d="M46.6701 245.253L51.8623 273.5H77.4275C78.936 263.946 79.4045 260.15 80.8007 251.308M40.5 236.572H89.5L86.6594 246.514L42.6304 245.094L40.5 236.572Z" stroke="#2E2E2E"/>
<path d="M71.5014 234C84.284 203.464 67.438 188.123 67.438 188.123C67.438 188.123 48.9293 201.333 61.0014 234M51.4761 233.572C36.5639 219.625 44.3139 205.437 44.3139 205.437C44.3139 205.437 53.0036 205.219 56.9168 212.781M78.501 233.572C92 223.5 89.501 210.5 89.501 210.5C89.501 210.5 80.5 211 76.0421 217" stroke="#2E2E2E"/>
<path opacity="0.15" d="M257 46.5511C257 49.3125 259.239 51.5513 262 51.5513C264.762 51.5513 267 49.3123 267 46.5511C267 43.7898 264.762 41.5513 262 41.5513C259.239 41.5513 257 43.7898 257 46.5511Z" fill="#EB6E4B"/>
<path opacity="0.15" d="M234 20.0511C234 24.1932 237.359 27.5513 241.5 27.5513C245.643 27.5513 249 24.1928 249 20.0511C249 15.909 245.643 12.5513 241.5 12.5513C237.359 12.5513 234 15.909 234 20.0511Z" fill="#EB6E4B"/>
<path opacity="0.15" d="M188 57.9986C188 89.4785 162.475 115 131.003 115C99.5166 115 74 89.4758 74 57.9986C74 26.5187 99.5166 1 131.003 1C162.475 1 188 26.5187 188 57.9986Z" fill="#EB6E4B"/>
<path fill-rule="evenodd" clip-rule="evenodd" d="M150 58C150 47.5066 141.493 39 131 39C120.507 39 112 47.5066 112 58C112 65.4994 116.345 71.984 122.655 75.0739L124 85.5L137.5 84.5L139.105 75.1894C145.545 72.1477 150 65.5941 150 58Z" fill="#EB6E4B"/>
<path opacity="0.4" d="M126 88L136 87L135 90L127 91L126 88Z" fill="#EB6E4B"/>
<path d="M132.5 72L137 56L134 57L131 51.5L128 56L124 55L128 68" stroke="white" stroke-width="2"/>
<path d="M156 61L171 60" stroke="#2E2E2E" stroke-width="2"/>
<path d="M149 41L160 31" stroke="#2E2E2E" stroke-width="2"/>
<path d="M131 34V18" stroke="#2E2E2E" stroke-width="2"/>
<path d="M114 41L101 31" stroke="#2E2E2E" stroke-width="2"/>
<path d="M107 60H93" stroke="#2E2E2E" stroke-width="2"/>
<path opacity="0.15" d="M190 21.9997C190 28.0748 194.926 33 200.999 33C207.076 33 212 28.0743 212 21.9997C212 15.9247 207.076 11 200.999 11C194.926 11 190 15.9247 190 21.9997Z" fill="#EB6E4B"/>
<path d="M131.003 115C99.5166 115 74 89.4758 74 57.9986C74 26.5187 99.5166 1 131.003 1" stroke="#EB6E4B"/>
</svg>
