<svg width="149" height="27" viewBox="0 0 149 27" fill="none" xmlns="http://www.w3.org/2000/svg">
<path d="M54.4466 25.0955V1.60553H63.4166C65.6966 1.60553 67.5266 2.14553 68.9066 3.25553C70.2866 4.36553 70.9766 5.86553 70.9766 7.78553C70.9766 8.29553 70.8866 8.83553 70.7366 9.40553C70.4066 10.4855 69.2966 12.1055 67.5866 12.8555C69.2066 13.3655 70.3466 14.1755 71.0366 15.2255C71.7266 16.2755 72.0566 17.3855 72.0566 18.5255C72.0566 22.4855 69.1466 25.0955 63.7166 25.0955H54.4466ZM58.1066 4.93553V11.5355H62.7266C65.7566 11.5355 67.2866 10.1255 67.2866 8.17553C67.2866 6.22553 65.9366 4.93553 62.9366 4.93553H58.1066ZM58.1066 14.7755V21.7655H63.7766C66.7466 21.7655 68.3666 20.3555 68.3666 18.2255C68.3666 16.1855 66.7766 14.7755 63.5366 14.7755H58.1066Z" fill="#196164"/>
<path d="M83.5278 14.2355C83.5278 12.9155 82.3878 11.8355 80.3778 11.8355C78.5478 11.8355 77.1978 12.6755 76.3878 14.3855L73.6578 12.8255C74.9178 10.0955 77.1978 8.74553 80.4678 8.74553C83.4678 8.74553 85.4778 9.82553 86.4678 12.0155C86.8278 12.8255 87.0078 13.7855 87.0078 14.8955V25.0955H83.4978V22.9055C82.5078 24.5555 80.9478 25.3655 78.7878 25.3655C77.2278 25.3655 75.9378 24.9155 74.9178 24.0455C73.8978 23.1755 73.3878 22.0355 73.3878 20.6555V20.4755C73.3878 16.7555 77.2278 15.5855 80.0478 15.5855H82.0278C83.0178 15.5855 83.5278 15.1355 83.5278 14.2355ZM83.4978 18.6155V18.1055H80.0478C79.2978 18.1055 78.5778 18.3155 77.9178 18.7055C77.2878 19.0955 76.9578 19.6355 76.9578 20.3255C76.9578 21.6455 77.9778 22.5155 79.5078 22.5155C81.9378 22.5155 83.4978 21.0155 83.4978 18.6155Z" fill="#196164"/>
<path d="M106.844 17.0255C106.844 19.2755 106.094 21.2255 104.594 22.8755C103.094 24.5255 101.204 25.3355 98.8937 25.3355C97.9937 25.3355 97.0037 25.0955 95.9537 24.6155C94.9037 24.1355 94.1237 23.4755 93.6137 22.6355V25.0955H90.1337V0.675527H93.7037V11.4455C94.2137 10.6055 94.9637 9.94553 96.0137 9.49553C97.0637 9.01553 98.0537 8.77553 98.9837 8.77553C101.324 8.77553 103.214 9.61553 104.654 11.2955C106.124 12.9755 106.844 14.8955 106.844 17.0255ZM94.9637 13.4555C94.0937 14.4455 93.6437 15.6455 93.6437 17.0555C93.6437 18.4655 94.0937 19.6655 94.9637 20.6555C95.8637 21.6155 97.0337 22.0955 98.4437 22.0955C99.8537 22.0955 101.024 21.6155 101.894 20.6555C102.794 19.6655 103.244 18.4655 103.244 17.0555C103.244 15.6455 102.794 14.4455 101.894 13.4555C101.024 12.4655 99.8537 11.9855 98.4437 11.9855C97.0337 11.9855 95.8637 12.4655 94.9637 13.4555Z" fill="#196164"/>
<path d="M108.874 9.07553H112.444V18.0455C112.444 20.4455 113.614 22.0355 115.984 22.0355C118.234 22.0355 119.674 20.4155 119.674 17.9855V9.07553H123.244V25.0955H119.764V22.9355C118.534 24.5855 116.914 25.4255 114.874 25.4255C111.004 25.4255 108.874 22.7555 108.874 18.9155V9.07553Z" fill="#196164"/>
<path d="M140.908 25.0955H137.338V16.1255C137.338 13.7255 136.168 12.1355 133.798 12.1355C131.548 12.1355 130.108 13.7555 130.108 16.1855V25.0955H126.538V9.07553H130.018V11.2355C131.248 9.58553 132.868 8.74553 134.908 8.74553C138.838 8.74553 140.908 11.3855 140.908 15.2255V25.0955Z" fill="#196164"/>
<path d="M143.392 22.6355C143.392 21.1655 144.562 19.9955 146.002 19.9955C147.472 19.9955 148.612 21.1655 148.612 22.6355C148.612 24.0755 147.442 25.2455 146.002 25.2455C144.562 25.2455 143.392 24.0455 143.392 22.6355Z" fill="#196164"/>
<path d="M3.18388 5.46286C-1.52321 10.8843 -0.944074 19.0949 4.47726 23.8019C9.89868 28.509 18.1092 27.9299 22.8163 22.5085C27.5234 17.0871 26.9443 8.87656 21.5229 4.16948C16.1016 -0.537544 7.89096 0.0414505 3.18388 5.46286Z" fill="#FFE86B"/>
<path d="M24.3361 0.288991C23.9384 0.375463 23.8386 0.882306 24.1459 1.14914C31.2353 7.30443 31.9926 18.0415 25.8372 25.1309C25.5704 25.4382 25.7405 25.926 26.1463 25.9558C30.0957 26.2456 34.1279 24.7338 36.9238 21.5136C41.6308 16.0923 41.0518 7.88166 35.6304 3.17458C32.4102 0.378702 28.2057 -0.552251 24.3361 0.288991Z" fill="#196164"/>
</svg>
